# xmcd
#
# Track frame offsets: 
#        150
#        16165
#        50747
#        76877
#        98322
#        115947
#        134312
#        155060
#        179350
#        196475
#        221640
#        233525
#        252457
#
# Disc length: 3546 seconds
#
# Revision: 7
# Processed by: cddbd v1.5.1PL2 Copyright (c) Steve Scherf et al.
# Submitted via: ExactAudioCopy v0.95b3
#
DISCID=a90dd80d
DTITLE=Various Artist - Too Marvelous (A Collection of Jazz Favorites)
DYEAR=1999
DGENRE=Jazz
TTITLE0=Billie Holiday - A Fine Romance
TTITLE1=Jimmy Smith - The Sermon
TTITLE2=Coleman Hawkins and Ben Webster - It Never Entered My Mind
TTITLE3=Stan Getz - Samba Triste
TTITLE4=Louis Armstrong - I Gotta Right To Sing The Blues
TTITLE5=Nina Simone - Love Me or Leave Me
TTITLE6=Charles Mingus - Memories of You
TTITLE7=Gene Ammons - Canadian Sunset
TTITLE8=Ella Fitzgerald - Don't Be That Way
TTITLE9=John Coltrane - Dear Lord
TTITLE10=Mose Allison - The Seventh Son
TTITLE11=Oscar Peterson Trio - Have You Met Miss Jones
TTITLE12=Dizzy Gillespie - This Lovely Feeling
EXTD=YEAR: 1999
EXTT0=
EXTT1=
EXTT2=
EXTT3=
EXTT4=
EXTT5=
EXTT6=
EXTT7=
EXTT8=
EXTT9=
EXTT10=
EXTT11=
EXTT12=
PLAYORDER=
